<svg xmlns="http://www.w3.org/2000/svg" viewBox="0 0 32 32">
  <path d="M7,13 L7,22 C7,24 9,26 11,26 L19,26 C21,26 23,24 23,22 L23,13 Z" fill="none" stroke="#3A2A1B" stroke-width="1.4" stroke-linejoin="round"/>
  <path d="M23,15 L26,15 C28,15 29,17 29,18.5 C29,20 28,22 26,22 L23,22" fill="none" stroke="#3A2A1B" stroke-width="1.4" stroke-linecap="round"/>
  <path d="M12,9 C12,7 13.5,6.5 13,5" fill="none" stroke="#3A2A1B" stroke-width="1.4" stroke-linecap="round"/>
  <path d="M16,9 C16,7 17.5,6.5 17,5" fill="none" stroke="#3A2A1B" stroke-width="1.4" stroke-linecap="round"/>
  <path d="M20,9 C20,7 18.5,6.5 19,5" fill="none" stroke="#3A2A1B" stroke-width="1.4" stroke-linecap="round"/>
</svg>
